<mxfile host="app.diagrams.net" modified="2023-05-29T15:53:30.230Z" agent="5.0 (Windows)" version="20.7.2" etag="ZA23MbJv4JLRWQUZDQUN" type="github">
  <diagram id="Br_UpvdF9Wm7sc6iomfY" name="Page-1">
    <mxGraphModel dx="674" dy="1064" grid="1" gridSize="10" guides="1" tooltips="1" connect="1" arrows="1" fold="1" page="1" pageScale="1" pageWidth="850" pageHeight="1100" math="0" shadow="0">
      <root>
        <mxCell id="0" />
        <mxCell id="1" parent="0" />
        <mxCell id="Sp2Zd0JYJzK0ZkBYKe8u-6" style="edgeStyle=orthogonalEdgeStyle;rounded=0;orthogonalLoop=1;jettySize=auto;html=1;entryX=0;entryY=0.5;entryDx=0;entryDy=0;endArrow=none;endFill=0;" edge="1" parent="1" source="Sp2Zd0JYJzK0ZkBYKe8u-2" target="Sp2Zd0JYJzK0ZkBYKe8u-3">
          <mxGeometry relative="1" as="geometry" />
        </mxCell>
        <mxCell id="Sp2Zd0JYJzK0ZkBYKe8u-2" value="Branch-edge" style="image;html=1;image=img/lib/clip_art/networking/Router_Icon_128x128.png" vertex="1" parent="1">
          <mxGeometry x="50" y="210" width="80" height="80" as="geometry" />
        </mxCell>
        <mxCell id="Sp2Zd0JYJzK0ZkBYKe8u-5" style="edgeStyle=orthogonalEdgeStyle;rounded=0;orthogonalLoop=1;jettySize=auto;html=1;entryX=0;entryY=0.5;entryDx=0;entryDy=0;endArrow=none;endFill=0;" edge="1" parent="1" source="Sp2Zd0JYJzK0ZkBYKe8u-3" target="Sp2Zd0JYJzK0ZkBYKe8u-4">
          <mxGeometry relative="1" as="geometry" />
        </mxCell>
        <mxCell id="Sp2Zd0JYJzK0ZkBYKe8u-3" value="Branch-Firewall" style="image;html=1;image=img/lib/clip_art/networking/Router_Icon_128x128.png" vertex="1" parent="1">
          <mxGeometry x="220" y="210" width="80" height="80" as="geometry" />
        </mxCell>
        <mxCell id="Sp2Zd0JYJzK0ZkBYKe8u-4" value="sw-br-floor2" style="image;html=1;image=img/lib/clip_art/networking/Switch_128x128.png" vertex="1" parent="1">
          <mxGeometry x="420" y="210" width="80" height="80" as="geometry" />
        </mxCell>
        <mxCell id="Sp2Zd0JYJzK0ZkBYKe8u-9" style="rounded=0;orthogonalLoop=1;jettySize=auto;html=1;entryX=0.5;entryY=1;entryDx=0;entryDy=0;endArrow=none;endFill=0;" edge="1" parent="1" source="Sp2Zd0JYJzK0ZkBYKe8u-7" target="Sp2Zd0JYJzK0ZkBYKe8u-4">
          <mxGeometry relative="1" as="geometry" />
        </mxCell>
        <mxCell id="Sp2Zd0JYJzK0ZkBYKe8u-11" style="edgeStyle=none;rounded=0;orthogonalLoop=1;jettySize=auto;html=1;entryX=0.5;entryY=1;entryDx=0;entryDy=0;endArrow=none;endFill=0;" edge="1" parent="1" source="Sp2Zd0JYJzK0ZkBYKe8u-7" target="Sp2Zd0JYJzK0ZkBYKe8u-8">
          <mxGeometry relative="1" as="geometry" />
        </mxCell>
        <mxCell id="Sp2Zd0JYJzK0ZkBYKe8u-7" value="&lt;div&gt;sw-br-floor3&lt;/div&gt;&lt;div&gt;&lt;br&gt;&lt;/div&gt;" style="image;html=1;image=img/lib/clip_art/networking/Switch_128x128.png" vertex="1" parent="1">
          <mxGeometry x="570" y="320" width="80" height="80" as="geometry" />
        </mxCell>
        <mxCell id="Sp2Zd0JYJzK0ZkBYKe8u-10" style="edgeStyle=none;rounded=0;orthogonalLoop=1;jettySize=auto;html=1;entryX=0.5;entryY=0;entryDx=0;entryDy=0;endArrow=none;endFill=0;" edge="1" parent="1" source="Sp2Zd0JYJzK0ZkBYKe8u-8" target="Sp2Zd0JYJzK0ZkBYKe8u-4">
          <mxGeometry relative="1" as="geometry" />
        </mxCell>
        <mxCell id="Sp2Zd0JYJzK0ZkBYKe8u-8" value="sw-br-floor1" style="image;html=1;image=img/lib/clip_art/networking/Switch_128x128.png" vertex="1" parent="1">
          <mxGeometry x="570" y="100" width="80" height="80" as="geometry" />
        </mxCell>
      </root>
    </mxGraphModel>
  </diagram>
</mxfile>
